PathFileType	4	(X/Y/Z)	S:\OneDrive - The University of Tokyo\ìåëÂéˆã∆\ÉoÉCÉÅÉJ\ë™íË\hirabayashi_2\Trimmed\Trimmed_BarR1Hirabayashi1.trc
DataRate	CameraRate	NumFrames	NumMarkers	Units	OrigDataRate	OrigDataStartFrame	OrigNumFrames
200.00	200.00	       9	12	mm	200.00	140	       373
Frame#	Time	BarR0			BarR50			BarR100			BarR130			BarR180			BarR230			BarL0			BarL50			BarL100			BarL130			BarL180			BarL230			
		X1	Y1	Z1	X2	Y2	Z2	X3	Y3	Z3	X4	Y4	Z4	X5	Y5	Z5	X6	Y6	Z6	X7	Y7	Z7	X8	Y8	Z8	X9	Y9	Z9	X10	Y10	Z10	X11	Y11	Z11	X12	Y12	Z12	

140	0.695	-578.23029	2752.48486	1664.30701	-606.20294	2303.75903	1643.73889	-640.57404	1850.88013	1630.30664	-663.42065	1349.36182	1630.29553	-691.70282	903.56293	1644.02075	-715.09851	456.34540	1663.69165	-1114.20203	2808.04736	1664.45642	-1141.09705	2356.25024	1667.48730	-1171.46094	1905.91125	1668.36499	-1199.03540	1403.99329	1668.81836	-1226.83765	952.52551	1667.90613	-1244.85205	506.22574	1667.25513	
141	0.700	-578.22815	2752.46973	1664.31262	-606.18658	2303.74634	1643.77344	-640.55939	1850.90479	1630.32751	-663.38916	1349.36804	1630.36108	-691.67676	903.56311	1644.05396	-715.11285	456.36328	1663.69727	-1114.26013	2808.05566	1664.47266	-1141.10156	2356.24829	1667.48987	-1171.47375	1905.89307	1668.35376	-1199.03503	1404.00403	1668.82068	-1226.84253	952.49829	1667.91956	-1244.84851	506.20645	1667.27136	
142	0.705	-578.21899	2752.49829	1664.31848	-606.20844	2303.75391	1643.76868	-640.54596	1850.93140	1630.36584	-663.39795	1349.34888	1630.37207	-691.69806	903.56219	1644.08276	-715.11407	456.35358	1663.69678	-1114.20190	2808.03833	1664.45642	-1141.12476	2356.21777	1667.47339	-1171.46313	1905.87415	1668.35461	-1199.01147	1404.07263	1668.83264	-1226.84192	952.49835	1667.90613	-1244.82813	506.20755	1667.27209	
143	0.710	-578.22559	2752.49561	1664.31177	-606.20203	2303.77588	1643.81836	-640.57062	1850.94922	1630.37891	-663.39014	1349.38025	1630.38098	-691.69293	903.59686	1644.09399	-715.12042	456.34991	1663.70190	-1114.26965	2808.02637	1664.47327	-1141.10156	2356.18433	1667.48047	-1171.46008	1905.87219	1668.35779	-1199.03552	1403.99109	1668.80579	-1226.82629	952.51007	1667.91101	-1244.85022	506.17844	1667.26538	
144	0.715	-578.24774	2752.51123	1664.29944	-606.18854	2303.75195	1643.81934	-640.54352	1850.93091	1630.38086	-663.38995	1349.37830	1630.39319	-691.70532	903.57184	1644.08691	-715.12555	456.36603	1663.69958	-1114.25586	2808.02148	1664.45789	-1141.09521	2356.17920	1667.44849	-1171.46143	1905.86523	1668.35498	-1198.98389	1404.04309	1668.81140	-1226.83313	952.46619	1667.89844	-1244.84399	506.17780	1667.26099	
145	0.720	-578.23700	2752.52441	1664.29907	-606.18768	2303.78564	1643.79236	-640.57092	1850.95947	1630.36609	-663.39856	1349.40088	1630.37549	-691.68243	903.60162	1644.08081	-715.12201	456.36899	1663.69727	-1114.17737	2808.01294	1664.50195	-1141.08765	2356.16772	1667.46497	-1171.43030	1905.85156	1668.34888	-1199.03003	1403.94971	1668.80127	-1226.82410	952.45758	1667.88843	-1244.83643	506.16953	1667.25476	
146	0.725	-578.23981	2752.51001	1664.30664	-606.18530	2303.74902	1643.81433	-640.54688	1850.95422	1630.37170	-663.38385	1349.38416	1630.36951	-691.70038	903.57874	1644.08582	-715.12195	456.36877	1663.70044	-1114.22632	2807.99048	1664.46912	-1141.06641	2356.18628	1667.45947	-1171.44812	1905.88196	1668.34460	-1198.99219	1403.96667	1668.79724	-1226.81445	952.48340	1667.90137	-1244.85840	506.18268	1667.26001	
147	0.730	-578.22211	2752.53198	1664.30811	-606.21198	2303.74512	1643.77124	-640.56891	1850.94812	1630.34705	-663.37946	1349.37268	1630.34570	-691.70490	903.62024	1644.08167	-715.11127	456.40387	1663.69519	-1114.19348	2808.00415	1664.47070	-1141.07837	2356.17920	1667.45972	-1171.41772	1905.87915	1668.34766	-1199.03467	1403.96875	1668.80969	-1226.82532	952.48187	1667.90259	-1244.85327	506.19073	1667.26782	
148	0.735	-578.22424	2752.50757	1664.29712	-606.18726	2303.75928	1643.76147	-640.55579	1850.93872	1630.32043	-663.38361	1349.38196	1630.33594	-691.67389	903.60986	1644.05334	-715.10291	456.39395	1663.70532	-1114.20911	2808.02026	1664.47473	-1141.07056	2356.22095	1667.46814	-1171.43958	1905.85852	1668.35840	-1199.00781	1404.01941	1668.81970	-1226.82288	952.50861	1667.90491	-1244.84534	506.19485	1667.27563	
